<?xml version="1.0" standalone="no"?>
<!DOCTYPE svg PUBLIC "-//W3C//DTD SVG 20010904//EN"
 "http://www.w3.org/TR/2001/REC-SVG-20010904/DTD/svg10.dtd">
<svg version="1.0" xmlns="http://www.w3.org/2000/svg"
 width="512.000000pt" height="512.000000pt" viewBox="0 0 512.000000 512.000000"
 preserveAspectRatio="xMidYMid meet">
<metadata>
Created by potrace 1.14, written by Peter Selinger 2001-2017
</metadata>
<g transform="translate(0.000000,512.000000) scale(0.100000,-0.100000)"
fill="#000000" stroke="none">
<path d="M3657 4914 c-1 -1 -30 -5 -64 -8 -86 -9 -241 -49 -348 -91 -337 -130
-654 -424 -814 -755 -27 -54 -75 -192 -97 -278 l-9 -32 -45 31 c-119 81 -282
149 -434 180 -157 34 -404 35 -557 4 -124 -26 -285 -86 -383 -143 -135 -79
-315 -232 -317 -270 0 -9 -2 -24 -4 -34 -5 -24 31 -77 60 -88 15 -6 89 -7 178
-4 l153 6 59 -157 c33 -86 70 -167 83 -180 44 -45 66 -42 255 33 97 38 180 66
184 63 14 -9 143 -159 143 -166 0 -3 -36 -46 -79 -96 -44 -49 -101 -122 -127
-162 -25 -39 -54 -83 -63 -97 -32 -48 -98 -192 -129 -285 -97 -284 -101 -638
-11 -911 25 -78 48 -99 105 -99 57 0 81 25 129 135 20 47 51 116 68 153 l31
68 51 -5 c118 -11 183 -19 225 -25 91 -14 130 -8 161 27 19 21 29 44 30 65 0
17 2 41 4 52 2 11 7 47 10 80 3 33 8 80 10 105 3 25 7 69 10 99 3 30 7 57 9
59 3 2 74 21 160 42 177 44 190 50 210 89 18 34 16 49 -28 230 -20 80 -36 150
-36 155 1 14 99 90 106 83 14 -13 139 -470 169 -616 2 -9 10 -50 19 -91 8 -41
18 -88 21 -105 2 -16 7 -41 10 -55 3 -14 10 -52 15 -85 6 -33 17 -91 25 -130
7 -38 16 -88 18 -110 3 -22 11 -77 17 -122 17 -126 18 -134 25 -229 4 -49 8
-99 10 -111 1 -12 -1 -26 -4 -31 -3 -5 -58 -12 -121 -15 -109 -6 -307 -35
-395 -59 -22 -5 -47 -11 -55 -13 -77 -15 -259 -76 -379 -127 -178 -75 -347
-171 -521 -297 -113 -81 -143 -123 -136 -191 4 -37 36 -123 36 -97 0 4 10 -1
22 -13 12 -11 32 -20 45 -20 13 0 23 -3 23 -7 0 -5 596 -8 1325 -8 748 0 1325
4 1325 9 0 5 7 3 15 -4 10 -9 15 -9 15 -1 0 6 6 11 14 11 8 0 28 13 44 30 20
19 32 26 35 17 2 -6 5 -1 5 13 1 14 4 42 8 62 7 44 -8 94 -38 128 -13 14 -41
48 -63 75 -21 28 -42 52 -45 55 -87 87 -104 111 -117 172 -16 74 -20 93 -30
133 -4 17 -7 32 -8 35 -3 19 -63 231 -104 365 -56 184 -180 525 -261 720 -47
114 -172 368 -228 465 -68 118 -76 131 -170 269 -93 137 -91 136 54 -23 62
-67 77 -78 113 -83 34 -5 47 -1 78 23 21 15 40 30 43 33 34 38 191 171 201
171 8 0 73 -32 144 -70 239 -129 249 -134 289 -120 43 14 56 31 134 186 34 67
69 135 78 151 l17 30 76 -14 c42 -7 91 -16 110 -19 18 -3 43 -8 55 -10 11 -3
47 -8 78 -11 54 -5 59 -4 88 25 27 28 36 52 30 92 -3 27 -50 87 -138 175 -208
208 -442 338 -732 404 -122 28 -169 33 -313 36 -70 1 -131 5 -134 9 -12 11
-10 116 1 124 6 5 45 21 86 36 287 108 317 122 336 159 15 29 13 88 -5 112 -4
6 -20 44 -36 85 -16 41 -41 106 -57 145 l-29 69 29 26 c16 14 40 34 54 45 13
11 63 53 110 93 95 79 112 113 88 171 -20 49 -64 63 -191 60 -60 -2 -110 -4
-112 -5z"/>
<path d="M4190 336 c0 -2 8 -10 18 -17 15 -13 16 -12 3 4 -13 16 -21 21 -21
13z"/>
<path d="M1276 247 c3 -10 9 -15 12 -12 3 3 0 11 -7 18 -10 9 -11 8 -5 -6z"/>
<path d="M4336 238 c3 -5 10 -6 15 -3 13 9 11 12 -6 12 -8 0 -12 -4 -9 -9z"/>
<path d="M2830 221 c0 -6 4 -13 10 -16 6 -3 7 1 4 9 -7 18 -14 21 -14 7z"/>
<path d="M3290 206 c0 -2 7 -7 16 -10 8 -3 12 -2 9 4 -6 10 -25 14 -25 6z"/>
<path d="M2073 165 c0 -8 4 -12 9 -9 5 3 6 10 3 15 -9 13 -12 11 -12 -6z"/>
<path d="M3686 158 c3 -5 10 -6 15 -3 13 9 11 12 -6 12 -8 0 -12 -4 -9 -9z"/>
<path d="M2273 135 c0 -8 4 -12 9 -9 5 3 6 10 3 15 -9 13 -12 11 -12 -6z"/>
<path d="M2393 135 c0 -8 4 -12 9 -9 5 3 6 10 3 15 -9 13 -12 11 -12 -6z"/>
<path d="M2873 135 c0 -8 4 -12 9 -9 5 3 6 10 3 15 -9 13 -12 11 -12 -6z"/>
</g>
</svg>
